<svg width="20" height="20" viewBox="0 0 20 20" fill="none" xmlns="http://www.w3.org/2000/svg">
<g clip-path="url(#clip0_1370_1296)">
<path d="M15.8466 9.56919V1.72304C15.8466 0.861501 15.1389 0.153809 14.2774 0.153809H1.72353C0.861989 0.153809 0.154297 0.861501 0.154297 1.72304V14.2769C0.154297 15.1384 0.861989 15.8461 1.72353 15.8461H9.56968C10.1235 18.123 12.1851 19.8461 14.6158 19.8461C17.4774 19.8461 19.8158 17.5077 19.8158 14.6461C19.8466 12.1846 18.1543 10.123 15.8466 9.56919ZM12.7081 9.81535H1.38507V6.21535H14.6158V9.44612C13.9389 9.44612 13.2928 9.56919 12.7081 9.81535ZM1.72353 1.38458H14.2774C14.462 1.38458 14.6158 1.53842 14.6158 1.72304V4.95381H1.38507V1.72304C1.38507 1.53842 1.53891 1.38458 1.72353 1.38458ZM1.38507 14.2769V11.0461H10.8928C10.0005 11.9692 9.4466 13.2307 9.4466 14.6461H1.7543C1.53891 14.6153 1.38507 14.4615 1.38507 14.2769ZM14.6466 18.6153C12.462 18.6153 10.6774 16.8307 10.6774 14.6461C10.6774 12.4615 12.462 10.6769 14.6466 10.6769C16.8312 10.6769 18.6158 12.4615 18.6158 14.6461C18.6158 16.8307 16.8312 18.6153 14.6466 18.6153Z" fill="white"/>
<path d="M16.7395 14.0308H15.2625V12.5539C15.2625 12.2154 14.9856 11.9385 14.6471 11.9385C14.3087 11.9385 14.0318 12.2154 14.0318 12.5539V14.0308H12.5548C12.2164 14.0308 11.9395 14.3077 11.9395 14.6462C11.9395 14.9846 12.2164 15.2616 12.5548 15.2616H14.0318V16.7385C14.0318 17.0769 14.3087 17.3539 14.6471 17.3539C14.9856 17.3539 15.2625 17.0769 15.2625 16.7385V15.2616H16.7395C17.0779 15.2616 17.3548 14.9846 17.3548 14.6462C17.3548 14.3077 17.0779 14.0308 16.7395 14.0308Z" fill="white"/>
</g>
<defs>
<clipPath id="clip0_1370_1296">
<rect width="20" height="20" fill="white"/>
</clipPath>
</defs>
</svg>
