<svg width="24" height="24" viewBox="0 0 24 24" fill="none" xmlns="http://www.w3.org/2000/svg">
<path d="M9.5 17.5C9.36739 17.5 9.24021 17.5527 9.14645 17.6464C9.05268 17.7402 9 17.8674 9 18C9 18.1326 9.05268 18.2598 9.14645 18.3536C9.24021 18.4473 9.36739 18.5 9.5 18.5H14.5C14.6326 18.5 14.7598 18.4473 14.8536 18.3536C14.9473 18.2598 15 18.1326 15 18C15 17.8674 14.9473 17.7402 14.8536 17.6464C14.7598 17.5527 14.6326 17.5 14.5 17.5H9.5Z" fill="white"/>
<path d="M12 1.67188C12.8208 1.67187 13.6175 1.94932 14.2617 2.45801L20.7617 7.58984C21.1944 7.93147 21.5448 8.36622 21.7852 8.8623C22.0255 9.35838 22.1504 9.90287 22.1504 10.4541V18.5C22.1504 19.468 21.7654 20.3966 21.0811 21.0811C20.3965 21.7656 19.468 22.1504 18.5 22.1504H5.5C4.53196 22.1504 3.60345 21.7656 2.91895 21.0811C2.23455 20.3966 1.84961 19.468 1.84961 18.5V10.4541C1.84963 9.90287 1.97448 9.35838 2.21484 8.8623C2.45524 8.36622 2.80563 7.93147 3.23828 7.58984L9.73828 2.45801C10.3825 1.94932 11.1792 1.67187 12 1.67188ZM12 2.97266C11.4716 2.97266 10.9587 3.15114 10.5439 3.47852L4.04297 8.61035C3.7646 8.83036 3.5394 9.11033 3.38477 9.42969C3.23014 9.74903 3.15036 10.0993 3.15039 10.4541V18.5C3.15039 19.1232 3.3973 19.7214 3.83789 20.1621C4.2786 20.6028 4.87674 20.8506 5.5 20.8506H18.5C19.1233 20.8506 19.7214 20.6028 20.1621 20.1621C20.6027 19.7214 20.8496 19.1232 20.8496 18.5V10.4541C20.8495 10.0992 20.769 9.74902 20.6143 9.42969C20.4981 9.19011 20.3425 8.9727 20.1543 8.78613L19.9561 8.61035L13.4561 3.47852C13.0413 3.15114 12.5284 2.97266 12 2.97266Z" fill="white" stroke="white" stroke-width="0.3"/>
</svg>
