<svg width="107" height="126" viewBox="0 0 107 126" fill="none" xmlns="http://www.w3.org/2000/svg">
<path d="M74.3822 31.8096V53.3425C74.3825 54.1394 74.2155 54.9275 73.892 55.6558C73.5686 56.3841 73.0958 57.0364 72.5044 57.5705C71.913 58.1046 71.216 58.5086 70.4586 58.7564C69.7013 59.0042 68.9003 59.0902 68.1075 59.009C65.1222 58.705 62.9662 55.9961 62.9662 53.0108V31.8096C62.9662 26.5024 60.893 21.4992 57.1614 17.7676C55.2737 15.8633 53.0191 14.3621 50.5342 13.3548C48.0492 12.3475 45.3856 11.8551 42.7048 11.9075C31.731 12.101 23.1621 21.6098 23.1621 32.6112V46.4337C23.1621 47.3459 21.3528 46.4337 20.413 46.4337C20.413 46.4337 16.5265 49.8614 15.6143 49.8614C14.7021 49.8614 11.7461 53.9746 11.7461 53.9746V32.8323C11.7461 15.7497 24.9588 1.04435 42.0138 0.519162C50.8038 0.242745 59.0687 3.50447 65.2328 9.69621C71.1205 15.5563 74.3822 23.4341 74.3822 31.8096Z" fill="#2D2E30"/>
<path d="M43.0566 124.394C66.5924 124.394 85.6718 105.314 85.6718 81.7783C85.6718 58.2426 66.5924 39.1631 43.0566 39.1631C19.5209 39.1631 0.441406 58.2426 0.441406 81.7783C0.441406 105.314 19.5209 124.394 43.0566 124.394Z" fill="#70665E"/>
<path d="M50.9674 102.968H35.1536C34.5735 102.968 34.001 102.836 33.4794 102.582C32.9577 102.328 32.5005 101.959 32.1423 101.503C31.784 101.047 31.534 100.515 31.4111 99.9482C31.2883 99.3813 31.2958 98.7938 31.433 98.2302L35.7313 80.838C34.4463 79.7617 33.4126 78.417 32.703 76.8984C31.9934 75.3798 31.625 73.7242 31.6238 72.048C31.622 70.5444 31.9163 69.0553 32.49 67.6655C33.0637 66.2757 33.9055 65.0126 34.9674 63.9481C36.0293 62.8837 37.2904 62.0388 38.6788 61.4618C40.0672 60.8847 41.5556 60.5868 43.0591 60.585C44.5627 60.5868 46.0511 60.8847 47.4395 61.4618C48.8279 62.0388 50.089 62.8837 51.1509 63.9481C52.2128 65.0126 53.0546 66.2757 53.6283 67.6655C54.202 69.0553 54.4963 70.5444 54.4945 72.048C54.4936 73.724 54.1257 75.3795 53.4165 76.898C52.7074 78.4166 51.6742 79.7615 50.3897 80.838L54.688 98.2302C54.8253 98.7938 54.8328 99.3813 54.7099 99.9482C54.5871 100.515 54.3371 101.047 53.9788 101.503C53.6205 101.959 53.1633 102.328 52.6417 102.582C52.12 102.836 51.5475 102.968 50.9674 102.968Z" fill="#231F20"/>
<path d="M85.6716 125.98C97.0861 125.98 106.339 116.727 106.339 105.312C106.339 93.8978 97.0861 84.6445 85.6716 84.6445C74.2572 84.6445 65.0039 93.8978 65.0039 105.312C65.0039 116.727 74.2572 125.98 85.6716 125.98Z" fill="#D8D9DA"/>
<path d="M82.0881 112.554C81.9067 112.553 81.7272 112.518 81.5597 112.448C81.3923 112.378 81.2402 112.276 81.1124 112.147L76.5626 107.6C76.4305 107.473 76.3253 107.32 76.2528 107.152C76.1804 106.983 76.1423 106.802 76.1407 106.618C76.1391 106.435 76.174 106.253 76.2435 106.083C76.313 105.913 76.4157 105.759 76.5454 105.629C76.6752 105.499 76.8295 105.396 76.9994 105.327C77.1692 105.257 77.3512 105.222 77.5347 105.224C77.7182 105.226 77.8996 105.264 78.0682 105.336C78.2368 105.409 78.3893 105.514 78.5168 105.646L82.0881 109.217L92.8269 98.4756C92.9544 98.3436 93.1069 98.2384 93.2756 98.1659C93.4442 98.0935 93.6255 98.0554 93.809 98.0538C93.9926 98.0522 94.1746 98.0871 94.3444 98.1566C94.5143 98.2261 94.6686 98.3287 94.7983 98.4585C94.9281 98.5883 95.0307 98.7426 95.1002 98.9125C95.1697 99.0823 95.2047 99.2643 95.2031 99.4478C95.2015 99.6313 95.1634 99.8127 95.0909 99.9813C95.0185 100.15 94.9132 100.302 94.7812 100.43L83.0666 112.15C82.9382 112.279 82.7857 112.38 82.6177 112.45C82.4498 112.519 82.2698 112.554 82.0881 112.554Z" fill="#5F6166"/>
</svg>
