<svg width="14" height="24" viewBox="0 0 14 24" fill="none" xmlns="http://www.w3.org/2000/svg">
<path d="M9.5234 11.9038V11.9043L7.00045 24.0002L4.47754 11.9043" fill="#EBEBEC"/>
<path d="M7.0003 9.91748V23.9999L4.47754 11.9041" fill="#EBEBEC"/>
<path d="M7.00013 12.4368C10.4345 12.4368 13.2185 9.65271 13.2185 6.21839C13.2185 2.78407 10.4345 0 7.00013 0C3.56581 0 0.781738 2.78407 0.781738 6.21839C0.781738 9.65271 3.56581 12.4368 7.00013 12.4368Z" fill="#E8181C"/>
<path d="M4.08769 6.21858C4.08769 3.35653 6.02129 0.946501 8.65327 0.222564C8.11477 0.0745259 7.55879 -0.0003341 7.00032 1.12084e-06C3.56588 1.12084e-06 0.781738 2.78419 0.781738 6.21858C0.781738 9.65297 3.56593 12.4371 7.00032 12.4371C7.55879 12.4374 8.11476 12.3626 8.65327 12.2146C6.02129 11.4907 4.08769 9.08058 4.08769 6.21858Z" fill="#C1111A"/>
<path d="M10.4552 6.3914C11.1044 6.3914 11.6307 5.86514 11.6307 5.21596C11.6307 4.56679 11.1044 4.04053 10.4552 4.04053C9.80605 4.04053 9.27979 4.56679 9.27979 5.21596C9.27979 5.86514 9.80605 6.3914 10.4552 6.3914Z" fill="#FF645F"/>
</svg>
