<svg width="140" height="140" viewBox="0 0 140 140" fill="none" xmlns="http://www.w3.org/2000/svg">
<g clip-path="url(#clip0_5_1051)">
<path d="M1.04102 22.0537C1.04102 9.7657 11.0909 -0.175121 23.4197 0.00233959C35.3621 0.174058 45.0727 9.96804 45.1481 21.9112C45.1905 28.5998 42.2543 34.6026 37.5889 38.6743C37.0965 39.1039 37.1676 39.8881 37.73 40.2209L41.8855 42.6796C42.5573 43.0772 42.2754 44.107 41.4947 44.107L22.6773 44.1023C10.6901 43.8795 1.04102 34.094 1.04102 22.0537Z" fill="#55493E"/>
<path d="M41.8855 42.68L37.7298 40.2213C37.1703 39.8904 37.0927 39.1073 37.5824 38.6802C42.3011 34.5652 45.2526 28.4749 45.1457 21.6975C44.9606 9.97444 35.4723 0.351351 23.7525 0.00982802C22.1274 -0.038516 20.502 0.0915985 18.9053 0.397836C29.0353 2.33979 36.7555 11.2689 36.8228 21.9114C36.8554 27.0654 35.1193 31.8123 32.1864 35.5821C30.4154 37.8585 30.9909 41.1594 33.4732 42.6283L33.5602 42.6798C34.2246 43.073 33.955 44.083 33.194 44.1049L41.4945 44.1068C42.2752 44.1074 42.5573 43.0773 41.8855 42.68Z" fill="#BDB8B4"/>
<path d="M108.498 80.0502H58.4683C45.9728 80.0502 39.1347 65.488 47.1155 55.8729L47.5593 55.338C51.0751 51.1022 52.9996 45.7705 52.9996 40.2656V30.6179C52.9999 13.708 66.7078 0 83.6177 0C100.528 0 114.236 13.708 114.236 30.6179V40.5912C114.236 46.1538 116.201 51.5376 119.784 55.7925C127.864 65.3879 121.043 80.0502 108.498 80.0502Z" fill="#C59191"/>
<path d="M134.796 104.845V137.92H32.1699V105.093C32.1699 97.6613 36.6242 90.9539 43.4711 88.0719L60.0387 80.8695L65.6168 78.4441C69.8496 76.6039 72.5867 72.4285 72.5867 67.8129V65.6719H94.377V67.7035C94.377 72.3383 97.1414 76.5301 101.404 78.3566L123.812 87.9625C130.49 90.9211 134.796 97.5383 134.796 104.845Z" fill="white"/>
<path d="M60.0371 88.7549C67.8596 91.0926 75.9958 92.2104 84.1589 92.069C91.891 91.9329 99.5617 90.6683 106.928 88.3152L109.63 81.8821L101.403 78.3561C99.3182 77.4624 97.5412 75.9766 96.2925 74.0828C95.0438 72.189 94.3781 69.9703 94.3781 67.7019V65.6719H72.5879V67.8123C72.5878 70.0705 71.9282 72.2796 70.6901 74.1681C69.4519 76.0566 67.6891 77.5423 65.6182 78.4428L58.9551 81.3398L60.0371 88.7549Z" fill="#FFCEBF"/>
<path d="M123.811 87.9605L106.932 80.7256L106.929 80.7259V137.918H134.797V104.844C134.797 97.5387 130.49 90.9202 123.811 87.9605ZM60.0387 80.8689V137.919H32.1699V105.093C32.1699 97.6607 36.6242 90.9532 43.4711 88.0712L60.0387 80.8689Z" fill="#BDB8B4"/>
<path d="M91.0363 77.6327C93.4642 77.6353 95.8684 77.1554 98.1093 76.221C96.9329 75.1357 95.9941 73.8186 95.3519 72.3526C94.7097 70.8865 94.3781 69.3034 94.378 67.7029V65.6729H72.5877V67.813C72.5878 69.4467 72.2418 71.0619 71.5728 72.5523C74.8723 75.6976 79.3362 77.6325 84.2545 77.6325L91.0363 77.6327Z" fill="#FFB09E"/>
<path d="M105.262 32.893V50.9194C105.262 61.0748 97.0292 69.3072 86.874 69.3072H80.0924C69.937 69.3072 61.7046 61.0746 61.7046 50.9194V32.893C61.7046 26.2865 67.0601 20.9307 73.6669 20.9307H93.2997C99.9063 20.9309 105.262 26.2865 105.262 32.893Z" fill="#FFCEBF"/>
<path d="M105.262 42.2715C105.254 42.2964 105.243 42.3204 105.236 42.3459C104.571 44.6414 102.827 48.9775 98.6109 52.2284C96.6479 53.7425 94.4087 54.8362 91.956 55.4799C91.6898 55.5475 91.4396 55.6672 91.2198 55.832C91 55.9968 90.8151 56.2035 90.6756 56.4402C90.5361 56.6768 90.4448 56.9387 90.407 57.2108C90.3692 57.4829 90.3856 57.7598 90.4554 58.0255C90.5251 58.2912 90.6467 58.5405 90.8132 58.7589C90.9798 58.9774 91.1879 59.1607 91.4256 59.2984C91.6633 59.4361 91.9259 59.5253 92.1983 59.561C92.4707 59.5966 92.7474 59.578 93.0126 59.5063C96.0073 58.7204 98.746 57.3808 101.153 55.525C102.693 54.3359 104.07 52.9504 105.25 51.4037C105.254 51.2424 105.262 51.0819 105.262 50.9195V42.2715H105.262Z" fill="#7A6D79"/>
<path d="M89.6735 61.2339H84.7962C82.5761 61.2339 80.7764 59.4342 80.7764 57.2141C80.7764 54.9941 82.5761 53.1943 84.7962 53.1943H89.6735C91.8935 53.1943 93.6933 54.9941 93.6933 57.2141C93.693 59.4345 91.8935 61.2339 89.6735 61.2339Z" fill="#685E68"/>
<path d="M87.8281 16.1601C88.2951 10.2702 93.934 6.36145 99.3308 4.33691C108.258 9.68617 114.235 19.4536 114.235 30.6184V32.7233C113.748 32.8266 113.257 32.9156 112.765 32.9902C109.792 33.4342 107.26 33.242 105.53 32.9902C94.3841 31.5054 87.264 23.2736 87.8281 16.1601Z" fill="#B98080"/>
<path d="M83.6176 0C90.5323 0 96.911 2.29305 102.037 6.15918C99.4797 10.6083 93.6085 19.4048 82.5991 25.917C74.426 30.7516 66.7195 32.3761 61.9737 32.9894H53V30.6176C52.9997 13.708 66.7077 0 83.6176 0Z" fill="#C59191"/>
<path d="M117.844 137.919H51.2194L47.5446 103.254C47.284 100.795 49.2115 98.6523 51.6839 98.6523H117.379C119.852 98.6523 121.779 100.795 121.519 103.254L117.844 137.919Z" fill="#EFEDEF"/>
<path d="M117.379 98.6523H109.054C111.527 98.6523 113.454 100.795 113.193 103.254L109.519 137.919H117.844L121.519 103.254C121.779 100.795 119.852 98.6523 117.379 98.6523Z" fill="#E5E1E5"/>
<path d="M137.949 140H2.05078C0.91793 140 0 139.082 0 137.949C0 136.817 0.91793 135.898 2.05078 135.898H137.949C139.082 135.898 140 136.817 140 137.949C140 139.082 139.082 140 137.949 140Z" fill="#C9BFC8"/>
<path d="M84.5316 124.113C87.75 124.113 90.3591 121.504 90.3591 118.286C90.3591 115.067 87.75 112.458 84.5316 112.458C81.3132 112.458 78.7041 115.067 78.7041 118.286C78.7041 121.504 81.3132 124.113 84.5316 124.113Z" fill="#C9BFC8"/>
<path d="M14.7691 24.1349C15.9185 24.1349 16.8503 23.2032 16.8503 22.0538C16.8503 20.9044 15.9185 19.9727 14.7691 19.9727C13.6197 19.9727 12.688 20.9044 12.688 22.0538C12.688 23.2032 13.6197 24.1349 14.7691 24.1349Z" fill="white"/>
<path d="M23.0938 24.1349C24.2432 24.1349 25.175 23.2032 25.175 22.0538C25.175 20.9044 24.2432 19.9727 23.0938 19.9727C21.9445 19.9727 21.0127 20.9044 21.0127 22.0538C21.0127 23.2032 21.9445 24.1349 23.0938 24.1349Z" fill="white"/>
<path d="M31.4195 24.1349C32.5689 24.1349 33.5006 23.2032 33.5006 22.0538C33.5006 20.9044 32.5689 19.9727 31.4195 19.9727C30.2701 19.9727 29.3384 20.9044 29.3384 22.0538C29.3384 23.2032 30.2701 24.1349 31.4195 24.1349Z" fill="white"/>
</g>
<defs>
<clipPath id="clip0_5_1051">
<rect width="140" height="140" fill="white"/>
</clipPath>
</defs>
</svg>
