<svg width="108" height="107" viewBox="0 0 108 107" fill="none" xmlns="http://www.w3.org/2000/svg">
<path d="M107.042 87.7842V101.418C107.042 104.414 104.628 106.844 101.632 106.844H5.93114C4.49187 106.844 3.11156 106.273 2.09385 105.255C1.07614 104.237 0.504395 102.857 0.504395 101.418V87.7842C0.504395 84.7878 2.93478 82.3574 5.93114 82.3574H101.632C104.628 82.3574 107.042 84.7878 107.042 87.7842Z" fill="#DBDBDB"/>
<path d="M22.4115 92.6613L19.0322 94.6089L22.4115 96.5566C22.811 96.7896 22.9442 97.289 22.7111 97.6885C22.6568 97.7829 22.5844 97.8656 22.498 97.9319C22.4116 97.9981 22.3129 98.0465 22.2076 98.0744C22.1024 98.1023 21.9926 98.109 21.8848 98.0942C21.7769 98.0794 21.673 98.0433 21.5792 97.9882L18.1999 96.0405V99.9524C18.1999 100.402 17.8337 100.785 17.3676 100.785C16.9015 100.785 16.5353 100.402 16.5353 99.9524V96.0405L13.1561 97.9882C13.0622 98.0433 12.9583 98.0794 12.8505 98.0942C12.7426 98.109 12.6328 98.1023 12.5276 98.0744C12.4223 98.0465 12.3236 97.9981 12.2372 97.9319C12.1508 97.8656 12.0784 97.7829 12.0241 97.6885C11.9685 97.5948 11.9321 97.4909 11.917 97.3829C11.902 97.275 11.9086 97.1651 11.9365 97.0597C11.9644 96.9543 12.013 96.8556 12.0795 96.7692C12.146 96.6828 12.229 96.6105 12.3237 96.5566L15.703 94.6089L12.3237 92.6613C12.1319 92.5485 11.9927 92.3642 11.9365 92.1489C11.8804 91.9336 11.9119 91.7048 12.0241 91.5127C12.2571 91.1132 12.7565 90.98 13.1561 91.2131L16.5353 93.1607V89.2654C16.5353 88.7993 16.9015 88.4331 17.3676 88.4331C17.8337 88.4331 18.1999 88.7993 18.1999 89.2654V93.1607L21.5792 91.2131C21.9787 90.98 22.4781 91.1132 22.7111 91.5127C22.9442 91.9122 22.811 92.4283 22.4115 92.6613ZM40.606 92.6613L37.2268 94.6089L40.606 96.5566C41.0056 96.7896 41.1554 97.289 40.9223 97.6885C40.7559 97.9549 40.4895 98.1047 40.1899 98.1047C40.0567 98.1047 39.9069 98.0714 39.7737 97.9882L36.4111 96.0572V99.9524C36.4111 100.402 36.0283 100.785 35.5788 100.785C35.1127 100.785 34.7465 100.402 34.7465 99.9524V96.0405L31.3673 97.9882C31.2341 98.0714 31.0843 98.1047 30.9511 98.1047C30.6515 98.1047 30.3851 97.9549 30.2187 97.6885C30.113 97.4959 30.087 97.2696 30.1461 97.0581C30.2052 96.8465 30.3448 96.6665 30.5349 96.5566L33.9142 94.6089L30.5349 92.6613C30.3442 92.5476 30.2049 92.3646 30.1459 92.1506C30.087 91.9365 30.113 91.708 30.2187 91.5127C30.4517 91.1132 30.9677 90.98 31.3673 91.2131L34.7465 93.1607V89.2654C34.7465 88.7993 35.1127 88.4331 35.5788 88.4331C36.0283 88.4331 36.4111 88.7993 36.4111 89.2654V93.1607L39.7737 91.2131C40.1732 90.98 40.6893 91.1132 40.9223 91.5127C41.1554 91.9122 41.0056 92.4283 40.606 92.6613ZM77.0118 92.6613L73.6326 94.6089L77.0118 96.5566C77.4113 96.7896 77.5445 97.289 77.3281 97.6885C77.1616 97.9549 76.8953 98.1047 76.5956 98.1047C76.4625 98.1047 76.3127 98.0714 76.1795 97.9882L72.8169 96.0572V99.9524C72.8169 100.402 72.434 100.785 71.9846 100.785C71.5185 100.785 71.1523 100.402 71.1523 99.9524V96.0405L67.773 97.9882C67.6399 98.0714 67.49 98.1047 67.3569 98.1047C67.0572 98.1047 66.7909 97.9549 66.6244 97.6885C66.5188 97.4959 66.4928 97.2696 66.5519 97.0581C66.611 96.8465 66.7506 96.6665 66.9407 96.5566L70.3199 94.6089L66.9407 92.6613C66.75 92.5476 66.6106 92.3646 66.5517 92.1506C66.4928 91.9365 66.5188 91.708 66.6244 91.5127C66.8575 91.1132 67.3735 90.98 67.773 91.2131L71.1523 93.1607V89.2654C71.1523 88.7993 71.5185 88.4331 71.9846 88.4331C72.434 88.4331 72.8169 88.7993 72.8169 89.2654V93.1607L76.1795 91.2131C76.579 90.98 77.095 91.1132 77.3281 91.5127C77.5445 91.9122 77.4113 92.4283 77.0118 92.6613ZM95.5227 97.6885C95.4682 97.7828 95.3957 97.8653 95.3093 97.9314C95.2228 97.9975 95.1242 98.0459 95.019 98.0737C94.9138 98.1016 94.8041 98.1083 94.6963 98.0937C94.5885 98.079 94.4846 98.0431 94.3907 97.9882L91.0115 96.0405V99.9524C91.0115 100.402 90.6452 100.785 90.1791 100.785C89.713 100.785 89.3468 100.402 89.3468 99.9524V96.0405L85.9676 97.9882C85.8737 98.0431 85.7698 98.079 85.662 98.0937C85.5542 98.1083 85.4445 98.1016 85.3393 98.0737C85.2341 98.0459 85.1355 97.9975 85.049 97.9314C84.9626 97.8653 84.8901 97.7828 84.8356 97.6885C84.78 97.5948 84.7436 97.4909 84.7286 97.3829C84.7135 97.275 84.7201 97.1651 84.748 97.0597C84.7759 96.9543 84.8245 96.8556 84.891 96.7692C84.9575 96.6828 85.0405 96.6105 85.1353 96.5566L88.5145 94.6089L85.1353 92.6613C84.7358 92.4283 84.6026 91.9122 84.8356 91.5127C85.0687 91.1132 85.5681 90.98 85.9676 91.2131L89.3468 93.1607V89.2654C89.3468 88.7993 89.713 88.4331 90.1791 88.4331C90.6452 88.4331 91.0115 88.7993 91.0115 89.2654V93.1607L94.3907 91.2131C94.7902 90.98 95.2896 91.1132 95.5227 91.5127C95.7557 91.9122 95.6225 92.4283 95.223 92.6613L91.8438 94.6089L95.223 96.5566C95.6225 96.7896 95.7557 97.289 95.5227 97.6885ZM58.8172 92.6613L55.438 94.6089L58.8172 96.5566C59.2168 96.7896 59.3499 97.289 59.1169 97.6885C59.0625 97.7828 58.9899 97.8653 58.9035 97.9314C58.8171 97.9975 58.7184 98.0459 58.6132 98.0737C58.508 98.1016 58.3983 98.1083 58.2905 98.0937C58.1827 98.079 58.0788 98.0431 57.9849 97.9882L54.6057 96.0405V99.9524C54.6057 100.402 54.2395 100.785 53.7734 100.785C53.3073 100.785 52.9411 100.402 52.9411 99.9524V96.0405L49.5618 97.9882C49.468 98.0433 49.3641 98.0794 49.2562 98.0942C49.1483 98.109 49.0386 98.1023 48.9334 98.0744C48.8281 98.0465 48.7294 97.9981 48.643 97.9319C48.5566 97.8656 48.4841 97.7829 48.4299 97.6885C48.3742 97.5948 48.3378 97.4909 48.3228 97.3829C48.3078 97.275 48.3144 97.1651 48.3423 97.0597C48.3702 96.9543 48.4188 96.8556 48.4853 96.7692C48.5517 96.6828 48.6348 96.6105 48.7295 96.5566L52.1087 94.6089L48.7295 92.6613C48.5377 92.5485 48.3985 92.3642 48.3423 92.1489C48.2861 91.9336 48.3176 91.7048 48.4299 91.5127C48.6629 91.1132 49.1623 90.98 49.5618 91.2131L52.9411 93.1607V89.2654C52.9411 88.7993 53.3073 88.4331 53.7734 88.4331C54.2395 88.4331 54.6057 88.7993 54.6057 89.2654V93.1607L57.9849 91.2131C58.3844 90.98 58.8838 91.1132 59.1169 91.5127C59.3499 91.9122 59.2168 92.4283 58.8172 92.6613Z" fill="#70665E"/>
<path d="M72.6398 19.1836V32.1512C72.64 32.6311 72.5394 33.1057 72.3446 33.5443C72.1498 33.9829 71.8651 34.3758 71.5089 34.6974C71.1528 35.0191 70.7331 35.2624 70.2769 35.4116C69.8208 35.5608 69.3385 35.6127 68.861 35.5637C67.0632 35.3806 65.7648 33.7493 65.7648 31.9515V19.1836C65.7648 15.9875 64.5163 12.9745 62.2691 10.7272C61.1322 9.58044 59.7745 8.67636 58.278 8.06975C56.7815 7.46314 55.1774 7.16663 53.563 7.19819C46.9543 7.31471 41.7939 13.0411 41.7939 19.6664V21.0813C41.7939 21.6307 41.3445 22.0801 40.7785 22.0801H35.9177C35.3684 22.0801 34.9189 21.6307 34.9189 21.0813V19.7995C34.9189 9.51204 42.8759 0.656136 53.1468 0.339854C58.4404 0.173389 63.4177 2.13767 67.1298 5.86647C70.6755 9.39552 72.6398 14.1398 72.6398 19.1836Z" fill="#2D2E30"/>
<path d="M53.7737 74.9395C67.9474 74.9395 79.4375 63.4494 79.4375 49.2756C79.4375 35.1019 67.9474 23.6118 53.7737 23.6118C39.5999 23.6118 28.1099 35.1019 28.1099 49.2756C28.1099 63.4494 39.5999 74.9395 53.7737 74.9395Z" fill="#70665E"/>
<path d="M58.5371 62.0372H49.0137C48.6643 62.037 48.3196 61.9575 48.0054 61.8047C47.6913 61.6519 47.4159 61.4297 47.2002 61.1549C46.9844 60.8802 46.8338 60.56 46.7599 60.2186C46.6859 59.8772 46.6904 59.5234 46.7731 59.184L49.3616 48.71C48.5877 48.0619 47.9652 47.252 47.5378 46.3375C47.1105 45.423 46.8887 44.4259 46.8879 43.4165C46.8868 42.511 47.0641 41.6142 47.4096 40.7772C47.7551 39.9403 48.262 39.1796 48.9015 38.5386C49.541 37.8975 50.3005 37.3887 51.1366 37.0412C51.9727 36.6937 52.8691 36.5143 53.7745 36.5132C54.68 36.5143 55.5764 36.6937 56.4125 37.0412C57.2486 37.3887 58.0081 37.8975 58.6476 38.5386C59.2871 39.1796 59.794 39.9403 60.1395 40.7772C60.485 41.6142 60.6623 42.511 60.6612 43.4165C60.6607 44.4258 60.4391 45.4228 60.012 46.3373C59.5849 47.2518 58.9628 48.0617 58.1892 48.71L60.7777 59.184C60.8604 59.5234 60.8649 59.8772 60.7909 60.2186C60.7169 60.56 60.5664 60.8802 60.3506 61.1549C60.1348 61.4297 59.8595 61.6519 59.5453 61.8047C59.2312 61.9575 58.8864 62.037 58.5371 62.0372Z" fill="#231F20"/>
<path d="M79.4382 75.8951C86.3123 75.8951 91.8848 70.3225 91.8848 63.4485C91.8848 56.5745 86.3123 51.002 79.4382 51.002C72.5642 51.002 66.9917 56.5745 66.9917 63.4485C66.9917 70.3225 72.5642 75.8951 79.4382 75.8951Z" fill="#D8D9DA"/>
<path d="M77.279 67.8098C77.1697 67.8097 77.0616 67.7881 76.9608 67.7461C76.8599 67.7041 76.7684 67.6426 76.6914 67.5651L73.9514 64.8267C73.8719 64.7499 73.8085 64.6581 73.7648 64.5566C73.7212 64.455 73.6983 64.3458 73.6973 64.2353C73.6963 64.1248 73.7174 64.0152 73.7592 63.9129C73.8011 63.8106 73.8629 63.7177 73.941 63.6395C74.0192 63.5614 74.1121 63.4996 74.2144 63.4577C74.3167 63.4159 74.4263 63.3948 74.5368 63.3958C74.6473 63.3967 74.7566 63.4197 74.8581 63.4633C74.9596 63.5069 75.0515 63.5703 75.1283 63.6498L77.279 65.8005L83.7461 59.3317C83.8229 59.2522 83.9148 59.1888 84.0163 59.1452C84.1178 59.1016 84.2271 59.0786 84.3376 59.0777C84.4481 59.0767 84.5577 59.0978 84.66 59.1396C84.7623 59.1815 84.8552 59.2433 84.9333 59.3214C85.0115 59.3996 85.0733 59.4925 85.1152 59.5948C85.157 59.6971 85.1781 59.8067 85.1771 59.9172C85.1761 60.0277 85.1532 60.1369 85.1096 60.2385C85.0659 60.34 85.0025 60.4319 84.923 60.5086L77.8683 67.5667C77.7909 67.6441 77.6991 67.7054 77.5979 67.7472C77.4968 67.7889 77.3884 67.8101 77.279 67.8098Z" fill="#304056"/>
</svg>
